<?xml version="1.0" encoding="UTF-8"?>
<svg xmlns="http://www.w3.org/2000/svg" style="display: none;">
    <symbol id="accessible" viewBox="0 0 512 512">
        <path d="M192.2 16a24 24 0 1 1 0 48 24 24 0 1 1 0-48zm0 80a56 56 0 1 0 0-112 56 56 0 1 0 0 112zM116.8 198c-67.3 18.9-116.6 80.7-116.6 154 0 88.4 71.6 160 160 160 71.6 0 132.3-47.1 152.7-112l-7.3 0c-.9 0-1.8 0-2.8 0l-23.9 0c-19 46.9-65 80-118.7 80-70.7 0-128-57.3-128-128 0-58 38.5-106.9 91.4-122.7l-4.2-16.8c-1.2-4.9-2.1-9.8-2.6-14.6zm51.4-70l-20.5 0 5 19.9 35.9 143.5c8.9 35.6 40.9 60.6 77.6 60.6l37.7 0c.2 0 .5 0 .7 0l69.8 0 59.6 119.2 6.2 12.4c3-1 23.4-7.8 61.2-20.4l15.2-5.1-10.1-30.4c-6.8 2.3-23.5 7.8-50 16.7l-57.8-115.6-4.4-8.8-77.4 0-45-179.9-3-12.1-100.5 0zm75.5 32l40 160-17.5 0c-22 0-41.2-15-46.6-36.4l-30.9-123.6 55 0z"/>
    </symbol>
    <symbol id="angle-left" viewBox="0 0 256 512">
        <path d="M9.5 256l11.3-11.3 160-160 11.3-11.3 22.6 22.6-11.3 11.3-148.7 148.7 148.7 148.7 11.3 11.3-22.6 22.6-11.3-11.3-160-160-11.3-11.3z"/>
    </symbol>
    <symbol id="angle-right" viewBox="0 0 256 512">
        <path d="M246.8 256l-11.3 11.3-160 160-11.3 11.3-22.6-22.6 11.3-11.3 148.7-148.7-148.7-148.7-11.3-11.3 22.6-22.6 11.3 11.3 160 160 11.3 11.3z"/>
    </symbol>
    <symbol id="angles-left" viewBox="0 0 448 512">
        <path d="M20.8 244.7l-11.3 11.3 11.3 11.3 160 160 11.3 11.3 22.6-22.6-11.3-11.3-148.7-148.7 148.7-148.7 11.3-11.3-22.6-22.6-11.3 11.3-160 160zm192 0l-11.3 11.3 11.3 11.3 160 160 11.3 11.3 22.6-22.6-11.3-11.3-148.7-148.7 148.7-148.7 11.3-11.3-22.6-22.6-11.3 11.3-160 160z"/>
    </symbol>
    <symbol id="angles-right" viewBox="0 0 448 512">
        <path d="M235.4 267.3l11.3-11.3-11.3-11.3-160-160-11.3-11.3-22.6 22.6 11.3 11.3 148.7 148.7-148.7 148.7-11.3 11.3 22.6 22.6 11.3-11.3 160-160zm192 0l11.3-11.3-11.3-11.3-160-160-11.3-11.3-22.6 22.6 11.3 11.3 148.7 148.7-148.7 148.7-11.3 11.3 22.6 22.6 171.3-171.3z"/>
    </symbol>
    <symbol id="arrow-down-left" viewBox="0 0 384 512">
        <path d="M16.1 448l-16 0 0-288 32 0 0 233.4 324.7-324.7 11.3-11.3 22.6 22.6-11.3 11.3-324.7 324.7 233.4 0 0 32-272 0z"/>
    </symbol>
    <symbol id="arrow-down-right" viewBox="0 0 384 512">
        <path d="M368.1 448l16 0 0-288-32 0 0 233.4-324.7-324.7-11.3-11.3-22.6 22.6 11.3 11.3 324.7 324.7-233.4 0 0 32 272 0z"/>
    </symbol>
    <symbol id="arrow-left" viewBox="0 0 512 512">
        <path d="M4.8 244.7l-11.3 11.3 11.3 11.3 176 176 11.3 11.3 22.6-22.6-11.3-11.3-148.7-148.7 457.4 0 0-32-457.4 0 148.7-148.7 11.3-11.3-22.6-22.6-187.3 187.3z"/>
    </symbol>
    <symbol id="arrow-right" viewBox="0 0 512 512">
        <path d="M507.4 267.3l11.3-11.3-11.3-11.3-176-176-11.3-11.3-22.6 22.6 11.3 11.3 148.7 148.7-457.4 0 0 32 457.4 0-148.7 148.7-11.3 11.3 22.6 22.6 187.3-187.3z"/>
    </symbol>
    <symbol id="arrow-rotate-left" viewBox="0 0 512 512">
        <path d="M32 0l0 119.8 37-39.1C117.6 29.2 185.2 0 256 0 395.7 0 511.9 116.4 512 256 512.1 395.3 395.7 511.9 256 512 155.9 512.1 62.7 451.5 22.1 360.1l29.2-13c35.4 79.9 117.2 133 204.7 132.9 122.1-.1 224.1-102.4 224-224-.1-121.9-102-224-224-224-62 0-121.2 25.5-163.8 70.6L53.1 144 176 144 176 176 0 176 0 0 32 0z"/>
    </symbol>
    <symbol id="arrow-rotate-right" viewBox="0 0 512 512">
        <path d="M480 0l0 119.8-37-39.1C394.5 29.2 326.8 0 256 0 116.3 0 .1 116.4 0 256-.1 395.3 116.3 511.9 256 512 356.1 512.1 449.4 451.5 490 360.1l-29.2-13c-35.4 79.9-117.2 133-204.7 132.9-122.1-.1-224.1-102.4-224-224 .1-121.9 102-224 224-224 62 0 121.2 25.5 163.8 70.6l39.1 41.4-122.9 0 0 32 176 0 0-176-32 0z"/>
    </symbol>
    <symbol id="arrow-up-left" viewBox="0 0 384 512">
        <path d="M16.1 64l-16 0 0 288 32 0 0-233.4 324.7 324.7 11.3 11.3 22.6-22.6-11.3-11.3-324.7-324.7 233.4 0 0-32-272 0z"/>
    </symbol>
    <symbol id="arrow-up-right" viewBox="0 0 384 512">
        <path d="M368.1 64l16 0 0 288-32 0 0-233.4-324.7 324.7-11.3 11.3-22.6-22.6 11.3-11.3 324.7-324.7-233.4 0 0-32 272 0z"/>
    </symbol>
    <symbol id="book" viewBox="0 0 448 512">
        <path d="M0 0l448 0 0 416-32 0 0 64 32 0 0 32-448 0 0-64 0 0 0-432 0-16zM64 416c-17.7 0-32 14.3-32 32l0 32 352 0 0-64-320 0zM32 392.6c9.4-5.4 20.3-8.6 32-8.6l352 0 0-352-384 0 0 360.6zM144 128l208 0 0 32-224 0 0-32 16 0zm0 96l208 0 0 32-224 0 0-32 16 0z"/>
    </symbol>
    <symbol id="book-atlas" viewBox="0 0 448 512">
        <path d="M0 0l448 0 0 416-32 0 0 64 32 0 0 32-448 0 0-64 0 0 0-432 0-16zM64 416c-17.7 0-32 14.3-32 32l0 32 352 0 0-64-320 0zM32 392.6c9.4-5.4 20.3-8.6 32-8.6l352 0 0-352-384 0 0 360.6zM318.7 224L279 224c-1.8 28.6-8.3 54-17.7 72.5 29.8-12.6 51.9-39.7 57.4-72.5zm-189.3 0c5.5 32.8 27.6 59.9 57.4 72.5-9.5-18.5-15.9-43.9-17.7-72.5l-39.7 0zm84.5 55c4.5 9.7 8.2 13.8 10.2 15.5 2-1.7 5.7-5.8 10.2-15.5 6.2-13.4 11.1-32.5 12.7-55l-45.8 0c1.6 22.5 6.5 41.6 12.7 55zm-12.7-87l45.8 0c-1.6-22.5-6.5-41.6-12.7-55-4.5-9.6-8.2-13.8-10.2-15.5-2 1.7-5.7 5.8-10.2 15.5-6.2 13.4-11.1 32.5-12.7 55zm117.6 0c-5.5-32.8-27.6-59.9-57.4-72.5 9.5 18.5 15.9 43.9 17.7 72.5l39.7 0zM169 192c1.8-28.6 8.3-54 17.7-72.5-29.8 12.6-51.9 39.7-57.4 72.5l39.7 0zM96 208a128 128 0 1 1 256 0 128 128 0 1 1 -256 0z"/>
    </symbol>
    <symbol id="building" viewBox="0 0 576 512">
        <path d="M288 3.6l9.9 7.8 147.6 116.6 130.4 0 0 384-576 0 0-384 130.4 0 147.6-116.6 9.9-7.8zM256 480l64 0 0-112-64 0 0 112zm96 0l192 0 0-320-109.6 0-4.4-3.4-142.1-112.2-142.1 112.2-4.4 3.4-109.6 0 0 320 192 0 0-144 128 0 0 144zM144 400l-48 0 0-48 48 0 0 48zM96 288l0-48 48 0 0 48-48 0zM480 400l-48 0 0-48 48 0 0 48zM432 288l0-48 48 0 0 48-48 0zM288 224a32 32 0 1 0 0-64 32 32 0 1 0 0 64zm0-96a64 64 0 1 1 0 128 64 64 0 1 1 0-128z"/>
    </symbol>
    <symbol id="calendar" viewBox="0 0 448 512">
        <path d="M128 0l0 64 192 0 0-64 32 0 0 64 96 0 0 416-448 0 0-416 96 0 0-64 32 0zM416 96l-384 0 0 64 384 0 0-64zm0 96l-384 0 0 256 384 0 0-256z"/>
    </symbol>
    <symbol id="chevron-down" viewBox="0 0 448 512">
        <path d="M224.1 422.6l11.3-11.3 208-208 11.3-11.3-22.6-22.6-11.3 11.3-196.7 196.7-196.7-196.7-11.3-11.3-22.6 22.6 11.3 11.3 208 208 11.3 11.3z"/>
    </symbol>
    <symbol id="chevron-up" viewBox="0 0 448 512">
        <path d="M224.1 89.4l11.3 11.3 208 208 11.3 11.3-22.6 22.6-11.3-11.3-196.7-196.7-196.7 196.7-11.3 11.3-22.6-22.6 11.3-11.3 208-208 11.3-11.3z"/>
    </symbol>
    <symbol id="clock" viewBox="0 0 512 512">
        <path d="M480 256a224 224 0 1 1 -448 0 224 224 0 1 1 448 0zM0 256a256 256 0 1 0 512 0 256 256 0 1 0 -512 0zM240 112l0 152.6 7.1 4.7 96 64 13.3 8.9 17.8-26.6-13.3-8.9-88.9-59.3 0-151.4-32 0 0 16z"/>
    </symbol>
    <symbol id="computer" viewBox="0 0 576 512">
        <path d="M336 32l-336 0 0 352 336 0 0-32-304 0 0-288 304 0 0-32zm0 416l-240 0 0 32 240 0 0-32zM416 64l128 0 0 64-128 0 0-64zm0 96l128 0 0 64-128 0 0-64zm128 96l0 192-128 0 0-192 128 0zM384 32l0 448 192 0 0-448-192 0zM504 344a24 24 0 1 0 -48 0 24 24 0 1 0 48 0z"/>
    </symbol>
    <symbol id="day" viewBox="0 0 512 512">
        <path d="M240 104l0 16 32 0 0-120-32 0 0 104zm16 88a64 64 0 1 1 0 128 64 64 0 1 1 0-128zm0 160a96 96 0 1 0 0-192 96 96 0 1 0 0 192zM240 512l32 0 0-112-32 0 0 112zM0 240l0 32 112 0 0-32-112 0zm408 0l-16 0 0 32 120 0 0-32-104 0zM63.7 425.7l22.6 22.6 11.3-11.3 56.6-56.6 11.3-11.3-22.6-22.6-11.3 11.3-56.6 56.6-11.3 11.3zM352.2 137.2l-11.3 11.3 22.6 22.6 11.3-11.3 62.2-62.2 11.3-11.3-22.6-22.6-11.3 11.3-62.2 62.2zM86.3 63.7L63.7 86.3 75 97.6 142.9 165.5 165.5 142.9 97.6 75 86.3 63.7zM374.8 352.2l-11.3-11.3-22.6 22.6 11.3 11.3 62.2 62.2 11.3 11.3 22.6-22.6-11.3-11.3-62.2-62.2z"/>
    </symbol>
    <symbol id="email" viewBox="0 0 512 512">
        <path d="M16 64l-16 0 0 384 512 0 0-384-496 0zm464 56l0 15.9-224 164.3-224-164.3 0-39.9 448 0 0 24zm0 55.6l0 240.4-448 0 0-240.4 214.5 157.3 9.5 6.9 9.5-6.9 214.5-157.3z"/>
    </symbol>
    <symbol id="filter" viewBox="0 0 576 512">
        <path d="M352 272l208-208-544 0 208 208 0 128 128 128 0-256zM320 450.7l-64-64 0-128-9.4-9.4-153.4-153.4 389.5 0-153.4 153.4-9.4 9.4 0 192z"/>
    </symbol>
    <symbol id="graduation-cap" viewBox="0 0 576 512">
        <path d="M288 269L533.2 160 288 51 42.8 160 288 269zM0 144l288-128 288 128 0 32-96 42.7 0 165.3c0 53-86 96-192 96S96 437 96 384l0-165.3-64-28.4 0 289.8-32 0 0-336zM288 304L128 232.9 128 384c0 7.9 7.2 23.6 38.5 39.3 29.4 14.7 72.3 24.7 121.5 24.7s92-10 121.5-24.7C440.8 407.6 448 391.9 448 384l0-151.1-160 71.1z"/>
    </symbol>
    <symbol id="hand-holding-box" viewBox="0 0 576 512">
        <path d="M208 32l0 121.9c9.8-4.9 36.5-18.2 80-40 43.5 21.8 70.2 35.1 80 40l0-121.9 48 0 0 192-256 0 0-192 48 0zM224 0l-96 0 0 256 320 0 0-256-224 0zm16 32l96 0 0 70.1-40.8-20.4-7.2-3.6-7.2 3.6-40.8 20.4 0-70.1zM176 304l-4.8 0-4 2.7-92 61.3-75.2 0 0 32 84.8 0 4-2.7 92-61.3 187.2 0 0 48-128 0 0 32 169 0 3.8-2.3 94-56 23.3 37.2-134.6 85-395.4 0 0 32 404.6 0 3.9-2.5 152-96 13.5-8.5-8.4-13.5-40-64-8.3-13.3-13.5 8-103.6 61.7-.2 0 0-80-224 0z"/>
    </symbol>
    <symbol id="hand-holding-hand" viewBox="0 0 576 512">
        <path d="M404.8 224l-228.8 0 0-80-.2 0-103.6 61.7-13.5 8c-.2-.4-16.4-26.2-48.3-77.3l-8.4-13.5 13.5-8.5 152-96 3.9-2.5 404.6 0 0 32-395.4 0-134.6 85 23.3 37.2 94-56 3.8-2.3 169 0 0 32-128 0 0 48 187.2 0 92-61.3 4-2.7 84.8 0 0 32-75.2 0-92 61.3-4 2.7zM171.2 288l228.8 0 0 80 .2 0 103.6-61.7 13.5-8 8.3 13.3 40 64 8.4 13.5-13.5 8.5-152 96-3.9 2.5-404.6 0 0-32 395.4 0 134.6-85-23.3-37.2-94 56-3.8 2.3-169 0 0-32 128 0 0-48-187.2 0-92 61.3-4 2.7-84.8 0 0-32 75.2 0 92-61.3 4-2.7z"/>
    </symbol>
    <symbol id="help" viewBox="0 0 512 512">
        <path d="M288 416l-8.9 0-7.6 4.6c-61 36.6-98.1 58.9-111.5 66.9l0-71.5-128 0 0-352 448 0 0 352-192 0zM128 487.5l0 56.5c37.3-22.4 67.4-40.4 160-96l224 0 0-416-512 0 0 416 128 0 0 39.5zM256 160c20.6 0 37.2 16.7 37.2 37.2 0 15.7-8.4 24.5-18.5 30.1-10.6 6-21 7.3-32.6 8.7l-2.1 .3 0 51.7 32 0 0-24.9c5.3-1.7 11.8-4.1 18.5-7.9 16.5-9.3 34.8-27.1 34.8-58 0-38.2-31-69.2-69.2-69.2s-69.2 31-69.2 69.2l32 0c0-20.6 16.7-37.2 37.2-37.2zM236 316l0 40 40 0 0-40-40 0z"/>
    </symbol>
    <symbol id="house" viewBox="0 0 512 512">
        <path d="M256.1-5.9l10.9 10.2 240 224 11.7 10.9-21.8 23.4c-6.2-5.8-17.2-16-32.8-30.6l0 280-416 0 0-280c-15.6 14.6-26.5 24.8-32.8 30.6l-21.8-23.4 11.7-10.9 240-224 10.9-10.2zm0 43.8l-176 164.3 0 277.8 96 0 0-176 160 0 0 176 96 0 0-277.8-176-164.3zM208.1 480l96 0 0-144-96 0 0 144z"/>
    </symbol>
    <symbol id="info" viewBox="0 0 512 512">
        <path d="M256 32a224 224 0 1 1 0 448 224 224 0 1 1 0-448zm0 480a256 256 0 1 0 0-512 256 256 0 1 0 0 512zM208 352l-16 0 0 32 128 0 0-32-48 0 0-128-80 0 0 32 48 0 0 96-32 0zm72-168l0-48-48 0 0 48 48 0z"/>
    </symbol>
    <symbol id="key" viewBox="0 0 512 512">
        <path d="M192 176c0-79.5 64.5-144 144-144s144 64.5 144 144-64.5 144-144 144c-11.1 0-22-1.3-32.4-3.6l-8.6-2-6.3 6.3-31.4 31.4-65.4 0 0 64-64 0 0 64-96 0 0-81.4 162.8-162.8 6.9-6.9-2.9-9.3c-4.4-13.8-6.7-28.4-6.7-43.7zM336 0c-97.2 0-176 78.8-176 176 0 15.1 1.9 29.8 5.5 43.9l-160.8 160.8-4.7 4.7 0 126.6 160 0 0-64 64 0 0-64 46.6 0 4.7-4.7 30-30c10 1.8 20.2 2.7 30.7 2.7 97.2 0 176-78.8 176-176S433.2 0 336 0zm32 168a24 24 0 1 0 0-48 24 24 0 1 0 0 48z"/>
    </symbol>
    <symbol id="lamp" viewBox="0 0 512 512">
        <path d="M307.3 28.7c-32.8-32.8-85.9-32.8-118.6 0s-32.8 85.9 0 118.6l12.7 12.7-84.7 84.7-6.5 6.5 2.4 8.9 58.6 219.9-171.2 0 0 32 384 0 0-32-179.7 0-58.5-219.2 78.2-78.2 0 128 4.7 4.7c18.1 18.1 29.9 29.9 35.3 35.3l11.3-11.3 224-224 11.3-11.3c-5.4-5.4-17.2-17.2-35.3-35.3l-4.7-4.7-128 0-35.3-35.3zm-96 22.6c20.3-20.3 53.1-20.3 73.4 0l40 40 4.7 4.7 128 0 8 8-201.4 201.4-8-8 0-128-44.7-44.7c-20.3-20.3-20.3-53.1 0-73.4z"/>
    </symbol>
    <symbol id="link" viewBox="0 0 576 512">
        <path d="M435.5 88c-26.5 0-52 9.7-71.8 27.1-6.9-8.2-14.5-15.8-22.6-22.7 25.8-23.4 59.4-36.5 94.4-36.5 77.6 0 140.5 62.9 140.5 140.5 0 37.2-14.8 73-41.1 99.3l-79.1 79.1c-26.3 26.3-62.1 41.1-99.3 41.1-77.6 0-140.5-62.9-140.5-140.5 0-26.4 7.4-52 21.1-74.1l27.2 16.9c-10.6 17-16.3 36.8-16.3 57.2 0 59.9 48.6 108.5 108.5 108.5 28.8 0 56.3-11.4 76.7-31.8l79.1-79.1C532.6 252.8 544 225.2 544 196.5 544 136.6 495.4 88 435.5 88zM140.5 424c26.5 0 52-9.7 71.8-27.1 6.9 8.2 14.5 15.8 22.6 22.7-25.8 23.4-59.4 36.5-94.4 36.5-77.6 0-140.5-62.9-140.5-140.5 0-37.2 14.8-73 41.1-99.3l79.1-79.1c26.3-26.3 62.1-41.1 99.3-41.1 77.6 0 140.5 62.9 140.5 140.5 0 26.4-7.4 52-21.1 74.1l-27.2-16.9c10.6-17 16.3-36.8 16.3-57.2 0-59.9-48.6-108.5-108.5-108.5-28.8 0-56.3 11.4-76.7 31.8L63.8 238.9C43.4 259.2 32 286.8 32 315.5 32 375.4 80.6 424 140.5 424z"/>
    </symbol>
    <symbol id="list" viewBox="0 0 448 512">
        <path d="M32 64l0 384 384 0 0-384-384 0zM0 32l448 0 0 448-448 0 0-448zM104 160a24 24 0 1 1 48 0 24 24 0 1 1 -48 0zm88-16l160 0 0 32-160 0 0-32zm0 96l160 0 0 32-160 0 0-32zm0 96l160 0 0 32-160 0 0-32zm-64-56a24 24 0 1 1 0-48 24 24 0 1 1 0 48zm-24 72a24 24 0 1 1 48 0 24 24 0 1 1 -48 0z"/>
    </symbol>
    <symbol id="location-dot" viewBox="0 0 384 512">
        <path d="M384 188.6C384 307.5 264.6 450 214.1 504.9 200.6 519.6 192 528 192 528s-8.6-8.4-22.1-23.1C119.4 450 0 307.5 0 188.6 0 84.4 86 0 192 0S384 84.4 384 188.6zm-352 0c0 31.3 10.1 66.6 27 103.2 16.8 36.4 39.6 72.3 62.8 104.2 26.1 35.8 52.2 66 70.1 85.6 17.9-19.5 44.1-49.8 70.1-85.6 23.2-32 46-67.8 62.8-104.2 17-36.7 27-71.9 27-103.2 0-85.9-71.1-156.6-160-156.6S32 102.6 32 188.6zM144 192a48 48 0 1 0 96 0 48 48 0 1 0 -96 0zm48 80a80 80 0 1 1 0-160 80 80 0 1 1 0 160z"/>
    </symbol>
    <symbol id="magnifying-glass" viewBox="0 0 512 512">
        <path d="M384.1 208a176 176 0 1 0 -352 0 176 176 0 1 0 352 0zM343.5 366c-36.4 31.2-83.7 50-135.3 50-114.9 0-208-93.1-208-208s93.1-208 208-208 208 93.1 208 208c0 51.7-18.8 99-50 135.3l141.4 141.4 11.3 11.3-22.6 22.6-11.3-11.3-141.4-141.4z"/>
    </symbol>
    <symbol id="menu-bars" viewBox="0 0 448 512">
        <path d="M0 64l448 0 0 32-448 0 0-32zM0 240l448 0 0 32-448 0 0-32zM448 416l0 32-448 0 0-32 448 0z"/>
    </symbol>
    <symbol id="minus" viewBox="0 0 448 512">
        <path d="M0 240l448 0 0 32-448 0 0-32z"/>
    </symbol>
    <symbol id="night" viewBox="0 0 512 512">
        <path d="M359.7 21.9C328.1 7.9 293.1 0 256 0 114.6 0 0 114.6 0 256S114.6 512 256 512c65.3 0 124.9-24.5 170.1-64.7 13-11.6 24.9-24.5 35.3-38.5-15.5 4.3-31.8 6.8-48.6 7.2-1.6 0-3.2 .1-4.8 .1-110.5 0-200-89.5-200-200 0-76.4 42.8-142.8 105.8-176.5 14.3-7.7 29.7-13.6 45.9-17.7zM266.4 32.2C211.4 74.6 176 141.2 176 216 176 333 262.6 429.8 375.2 445.7 340.7 467.4 299.8 480 256 480 132.3 480 32 379.7 32 256S132.3 32 256 32c3.5 0 6.9 .1 10.4 .2z"/>
    </symbol>
    <symbol id="phone" viewBox="0 0 512 512">
        <path d="M167.2 216L224 160 128 0 0 64 0 80C0 318.6 193.4 512 432 512l16 0 64-128-160-96-56 56.8C236.8 322 190 275.2 167.2 216zM357.1 328.4l113 67.8-41.9 83.8C210.3 478 34 301.7 32 83.8l83.8-41.9 67.8 113c-29.9 29.5-47.8 47.2-53.8 53.1l7.5 19.6c26 67.6 79.5 121.1 147.1 147.1l19.6 7.5c5.9-6 23.6-23.9 53-53.8z"/>
    </symbol>
    <symbol id="plug" viewBox="0 0 448 512">
        <path d="M128-32l0 128 192 0 0-128 32 0 0 128 96 0 0 32-32 0 0 96c0 100.6-77.4 183.2-176 191.3l0 96.7-32 0 0-96.7C109.4 407.2 32 324.6 32 224l0-96-32 0 0-32 96 0 0-128 32 0zM64 128l0 96c0 88.4 71.6 160 160 160s160-71.6 160-160l0-96-320 0z"/>
    </symbol>
    <symbol id="plus" viewBox="0 0 448 512">
        <path d="M240 48l0-16-32 0 0 208-208 0 0 32 208 0 0 208 32 0 0-208 208 0 0-32-208 0 0-192z"/>
    </symbol>
    <symbol id="profile" viewBox="0 0 448 512">
        <path d="M416 64l0 384-37.3 0-42.7-128-224 0-42.7 128-37.3 0 0-384 384 0zM344.9 448l-241.9 0 32-96 177.9 0 32 96zM32 32l-32 0 0 448 448 0 0-448-416 0zM224 240a48 48 0 1 1 0-96 48 48 0 1 1 0 96zm-80-48a80 80 0 1 0 160 0 80 80 0 1 0 -160 0z"/>
    </symbol>
    <symbol id="quote" viewBox="0 0 576 512">
        <path d="M0 88C0 39.4 39.4 0 88 0l24 0 0 32-24 0C57.1 32 32 57.1 32 88l0 8 96 0 0 128-128 0 0-136zm32 40l0 64 64 0 0-64-64 0zM160 88c0-48.6 39.4-88 88-88l24 0 0 32-24 0c-30.9 0-56 25.1-56 56l0 8 96 0 0 128-128 0 0-136zm32 80l0 24 64 0 0-64-64 0 0 40zM576 424c0 48.6-39.4 88-88 88l-24 0 0-32 24 0c30.9 0 56-25.1 56-56l0-8-96 0 0-128 128 0 0 136zm-32-40l0-64-64 0 0 64 64 0zM416 424c0 48.6-39.4 88-88 88l-24 0 0-32 24 0c30.9 0 56-25.1 56-56l0-8-96 0 0-128 128 0 0 136zm-32-80l0-24-64 0 0 64 64 0 0-40z"/>
    </symbol>
    <symbol id="shield-keyhole" viewBox="0 0 512 512">
        <path d="M48.6 114.9L256 34.3 463.6 114.9C468.9 206 434.8 399.8 256 477.1 77.3 399.8 43.2 206 48.6 114.9zm447-1.9L494.3 92.5 475.1 85 267.6 4.5 256 0 244.5 4.5 37 85 17.8 92.5 16.6 113c-2.9 49.9 4.9 126.3 37.3 200.9 32.7 75.3 91 150 189.4 192.6l12.7 5.5 12.7-5.5c98.4-42.6 156.7-117.3 189.4-192.6 32.4-74.7 40.2-151 37.3-200.9zM256 184a24 24 0 1 1 0 48 24 24 0 1 1 0-48zm56 24c0-30.9-25.1-56-56-56s-56 25.1-56 56c0 25.4 16.9 46.8 40 53.7l0 90.3 32 0 0-90.3c23.1-6.9 40-28.3 40-53.7z"/>
    </symbol>
    <symbol id="smiley" viewBox="0 0 512 512">
        <path d="M480 256a224 224 0 1 0 -448 0 224 224 0 1 0 448 0zM0 256a256 256 0 1 1 512 0 256 256 0 1 1 -512 0zM256 368c42.6 0 80.3-20.8 103.6-52.8L385.5 334c-29.1 40-76.2 66-129.5 66s-100.5-26-129.5-66l25.9-18.8c23.3 32.1 61 52.8 103.6 52.8zM152 208a24 24 0 1 1 48 0 24 24 0 1 1 -48 0zm184-24a24 24 0 1 1 0 48 24 24 0 1 1 0-48z"/>
    </symbol>
    <symbol id="sparkles" viewBox="0 0 640 512">
        <path d="M528-16l-32 0 0 64-64 0 0 32 64 0 0 64 32 0 0-64 64 0 0-32-64 0 0-64zM288 320c80.6-35.8 128.6-57.2 144-64-15.4-6.8-63.4-28.2-144-64-35.8-80.6-57.2-128.6-64-144-6.8 15.4-28.2 63.4-64 144-80.6 35.8-128.6 57.2-144 64 15.4 6.8 63.4 28.2 144 64 35.8 80.6 57.2 128.6 64 144 6.8-15.4 28.2-63.4 64-144zm-64 65.2l-34.8-78.2-5-11.2-11.2-5-78.2-34.8 78.2-34.8 11.2-5 5-11.2 34.8-78.2 34.8 78.2 5 11.2 11.2 5 78.2 34.8-78.2 34.8-11.2 5-5 11.2-34.8 78.2zM496 384l0-16-32 0 0 64-64 0 0 32 64 0 0 64 32 0 0-64 64 0 0-32-64 0 0-48z"/>
    </symbol>
    <symbol id="square-info" viewBox="0 0 448 512">
        <path d="M32 64l0 384 384 0 0-384-384 0zM0 32l448 0 0 448-448 0 0-448zM176 352l32 0 0-96-48 0 0-32 80 0 0 128 48 0 0 32-128 0 0-32 16 0zm72-216l0 48-48 0 0-48 48 0z"/>
    </symbol>
    <symbol id="table" viewBox="0 0 448 512">
        <path d="M32 64l0 96 384 0 0-96-384 0zM0 192l0-160 448 0 0 448-448 0 0-288zm416 0l-176 0 0 112 176 0 0-112zm-208 0l-176 0 0 112 176 0 0-112zm0 144l-176 0 0 112 176 0 0-112zm32 112l176 0 0-112-176 0 0 112z"/>
    </symbol>
    <symbol id="vial" viewBox="0 0 512 512">
        <path d="M312 1.4c5.4 5.4 17.2 17.2 35.3 35.3 228.8 228.8 127.2 127.2 163.3 163.3L488 222.6c-7.3-7.3-15.3-15.3-24-24-37.7 37.7-131.7 131.7-282.2 282.2-20 20-47.1 31.2-75.3 31.2-58.8 0-106.5-47.7-106.5-106.5 0-28.2 11.2-55.3 31.2-75.3 22.5-22.5 116.5-116.5 282.2-282.2-8.7-8.7-16.7-16.7-24-24L312 1.4zm24 69.3L150.6 256 361.4 256 441.4 176 336 70.6zM329.4 288l-210.7 0-64.8 64.8c-14 14-21.8 32.9-21.8 52.7 0 41.1 33.4 74.5 74.5 74.5 19.8 0 38.7-7.8 52.7-21.8L329.4 288z"/>
    </symbol>
    <symbol id="xmark" viewBox="0 0 384 512">
        <path d="M379.4 91.3L390.8 80 368.1 57.4 356.8 68.7 192.1 233.4 27.4 68.7 16.1 57.4-6.5 80 4.8 91.3 169.5 256 4.8 420.7-6.5 432 16.1 454.6 27.4 443.3 192.1 278.6 356.8 443.3 368.1 454.6 390.8 432 379.4 420.7 214.8 256 379.4 91.3z"/>
    </symbol>
    
    <!-- Symbol aliases -->
    <symbol id="bars" viewBox="0 0 448 512"><!-- menu-bars -->
        <path d="M0 64l448 0 0 32-448 0 0-32zM0 240l448 0 0 32-448 0 0-32zM448 416l0 32-448 0 0-32 448 0z"/>
    </symbol>
    <symbol id="brightness" viewBox="0 0 512 512"><!-- day -->
        <path d="M240 104l0 16 32 0 0-120-32 0 0 104zm16 88a64 64 0 1 1 0 128 64 64 0 1 1 0-128zm0 160a96 96 0 1 0 0-192 96 96 0 1 0 0 192zM240 512l32 0 0-112-32 0 0 112zM0 240l0 32 112 0 0-32-112 0zm408 0l-16 0 0 32 120 0 0-32-104 0zM63.7 425.7l22.6 22.6 11.3-11.3 56.6-56.6 11.3-11.3-22.6-22.6-11.3 11.3-56.6 56.6-11.3 11.3zM352.2 137.2l-11.3 11.3 22.6 22.6 11.3-11.3 62.2-62.2 11.3-11.3-22.6-22.6-11.3 11.3-62.2 62.2zM86.3 63.7L63.7 86.3 75 97.6 142.9 165.5 165.5 142.9 97.6 75 86.3 63.7zM374.8 352.2l-11.3-11.3-22.6 22.6 11.3 11.3 62.2 62.2 11.3 11.3 22.6-22.6-11.3-11.3-62.2-62.2z"/>
    </symbol>
    <symbol id="circle-info" viewBox="0 0 512 512"><!-- info -->
        <path d="M256 32a224 224 0 1 1 0 448 224 224 0 1 1 0-448zm0 480a256 256 0 1 0 0-512 256 256 0 1 0 0 512zM208 352l-16 0 0 32 128 0 0-32-48 0 0-128-80 0 0 32 48 0 0 96-32 0zm72-168l0-48-48 0 0 48 48 0z"/>
    </symbol>
    <symbol id="envelope" viewBox="0 0 512 512"><!-- email -->
        <path d="M16 64l-16 0 0 384 512 0 0-384-496 0zm464 56l0 15.9-224 164.3-224-164.3 0-39.9 448 0 0 24zm0 55.6l0 240.4-448 0 0-240.4 214.5 157.3 9.5 6.9 9.5-6.9 214.5-157.3z"/>
    </symbol>
    <symbol id="face-smile" viewBox="0 0 512 512"><!-- smiley -->
        <path d="M480 256a224 224 0 1 0 -448 0 224 224 0 1 0 448 0zM0 256a256 256 0 1 1 512 0 256 256 0 1 1 -512 0zM256 368c42.6 0 80.3-20.8 103.6-52.8L385.5 334c-29.1 40-76.2 66-129.5 66s-100.5-26-129.5-66l25.9-18.8c23.3 32.1 61 52.8 103.6 52.8zM152 208a24 24 0 1 1 48 0 24 24 0 1 1 -48 0zm184-24a24 24 0 1 1 0 48 24 24 0 1 1 0-48z"/>
    </symbol>
    <symbol id="lamp-desk" viewBox="0 0 512 512"><!-- lamp -->
        <path d="M307.3 28.7c-32.8-32.8-85.9-32.8-118.6 0s-32.8 85.9 0 118.6l12.7 12.7-84.7 84.7-6.5 6.5 2.4 8.9 58.6 219.9-171.2 0 0 32 384 0 0-32-179.7 0-58.5-219.2 78.2-78.2 0 128 4.7 4.7c18.1 18.1 29.9 29.9 35.3 35.3l11.3-11.3 224-224 11.3-11.3c-5.4-5.4-17.2-17.2-35.3-35.3l-4.7-4.7-128 0-35.3-35.3zm-96 22.6c20.3-20.3 53.1-20.3 73.4 0l40 40 4.7 4.7 128 0 8 8-201.4 201.4-8-8 0-128-44.7-44.7c-20.3-20.3-20.3-53.1 0-73.4z"/>
    </symbol>
    <symbol id="message-question" viewBox="0 0 512 512"><!-- help -->
        <path d="M288 416l-8.9 0-7.6 4.6c-61 36.6-98.1 58.9-111.5 66.9l0-71.5-128 0 0-352 448 0 0 352-192 0zM128 487.5l0 56.5c37.3-22.4 67.4-40.4 160-96l224 0 0-416-512 0 0 416 128 0 0 39.5zM256 160c20.6 0 37.2 16.7 37.2 37.2 0 15.7-8.4 24.5-18.5 30.1-10.6 6-21 7.3-32.6 8.7l-2.1 .3 0 51.7 32 0 0-24.9c5.3-1.7 11.8-4.1 18.5-7.9 16.5-9.3 34.8-27.1 34.8-58 0-38.2-31-69.2-69.2-69.2s-69.2 31-69.2 69.2l32 0c0-20.6 16.7-37.2 37.2-37.2zM236 316l0 40 40 0 0-40-40 0z"/>
    </symbol>
    <symbol id="moon" viewBox="0 0 512 512"><!-- night -->
        <path d="M359.7 21.9C328.1 7.9 293.1 0 256 0 114.6 0 0 114.6 0 256S114.6 512 256 512c65.3 0 124.9-24.5 170.1-64.7 13-11.6 24.9-24.5 35.3-38.5-15.5 4.3-31.8 6.8-48.6 7.2-1.6 0-3.2 .1-4.8 .1-110.5 0-200-89.5-200-200 0-76.4 42.8-142.8 105.8-176.5 14.3-7.7 29.7-13.6 45.9-17.7zM266.4 32.2C211.4 74.6 176 141.2 176 216 176 333 262.6 429.8 375.2 445.7 340.7 467.4 299.8 480 256 480 132.3 480 32 379.7 32 256S132.3 32 256 32c3.5 0 6.9 .1 10.4 .2z"/>
    </symbol>
    <symbol id="quotes" viewBox="0 0 576 512"><!-- quote -->
        <path d="M0 88C0 39.4 39.4 0 88 0l24 0 0 32-24 0C57.1 32 32 57.1 32 88l0 8 96 0 0 128-128 0 0-136zm32 40l0 64 64 0 0-64-64 0zM160 88c0-48.6 39.4-88 88-88l24 0 0 32-24 0c-30.9 0-56 25.1-56 56l0 8 96 0 0 128-128 0 0-136zm32 80l0 24 64 0 0-64-64 0 0 40zM576 424c0 48.6-39.4 88-88 88l-24 0 0-32 24 0c30.9 0 56-25.1 56-56l0-8-96 0 0-128 128 0 0 136zm-32-40l0-64-64 0 0 64 64 0zM416 424c0 48.6-39.4 88-88 88l-24 0 0-32 24 0c30.9 0 56-25.1 56-56l0-8-96 0 0-128 128 0 0 136zm-32-80l0-24-64 0 0 64 64 0 0-40z"/>
    </symbol>
    <symbol id="school" viewBox="0 0 576 512"><!-- building -->
        <path d="M288 3.6l9.9 7.8 147.6 116.6 130.4 0 0 384-576 0 0-384 130.4 0 147.6-116.6 9.9-7.8zM256 480l64 0 0-112-64 0 0 112zm96 0l192 0 0-320-109.6 0-4.4-3.4-142.1-112.2-142.1 112.2-4.4 3.4-109.6 0 0 320 192 0 0-144 128 0 0 144zM144 400l-48 0 0-48 48 0 0 48zM96 288l0-48 48 0 0 48-48 0zM480 400l-48 0 0-48 48 0 0 48zM432 288l0-48 48 0 0 48-48 0zM288 224a32 32 0 1 0 0-64 32 32 0 1 0 0 64zm0-96a64 64 0 1 1 0 128 64 64 0 1 1 0-128z"/>
    </symbol>
    <symbol id="square-list" viewBox="0 0 448 512"><!-- list -->
        <path d="M32 64l0 384 384 0 0-384-384 0zM0 32l448 0 0 448-448 0 0-448zM104 160a24 24 0 1 1 48 0 24 24 0 1 1 -48 0zm88-16l160 0 0 32-160 0 0-32zm0 96l160 0 0 32-160 0 0-32zm0 96l160 0 0 32-160 0 0-32zm-64-56a24 24 0 1 1 0-48 24 24 0 1 1 0 48zm-24 72a24 24 0 1 1 48 0 24 24 0 1 1 -48 0z"/>
    </symbol>
    <symbol id="square-user" viewBox="0 0 448 512"><!-- profile -->
        <path d="M416 64l0 384-37.3 0-42.7-128-224 0-42.7 128-37.3 0 0-384 384 0zM344.9 448l-241.9 0 32-96 177.9 0 32 96zM32 32l-32 0 0 448 448 0 0-448-416 0zM224 240a48 48 0 1 1 0-96 48 48 0 1 1 0 96zm-80-48a80 80 0 1 0 160 0 80 80 0 1 0 -160 0z"/>
    </symbol>
    <symbol id="wheelchair" viewBox="0 0 512 512"><!-- accessible -->
        <path d="M192.2 16a24 24 0 1 1 0 48 24 24 0 1 1 0-48zm0 80a56 56 0 1 0 0-112 56 56 0 1 0 0 112zM116.8 198c-67.3 18.9-116.6 80.7-116.6 154 0 88.4 71.6 160 160 160 71.6 0 132.3-47.1 152.7-112l-7.3 0c-.9 0-1.8 0-2.8 0l-23.9 0c-19 46.9-65 80-118.7 80-70.7 0-128-57.3-128-128 0-58 38.5-106.9 91.4-122.7l-4.2-16.8c-1.2-4.9-2.1-9.8-2.6-14.6zm51.4-70l-20.5 0 5 19.9 35.9 143.5c8.9 35.6 40.9 60.6 77.6 60.6l37.7 0c.2 0 .5 0 .7 0l69.8 0 59.6 119.2 6.2 12.4c3-1 23.4-7.8 61.2-20.4l15.2-5.1-10.1-30.4c-6.8 2.3-23.5 7.8-50 16.7l-57.8-115.6-4.4-8.8-77.4 0-45-179.9-3-12.1-100.5 0zm75.5 32l40 160-17.5 0c-22 0-41.2-15-46.6-36.4l-30.9-123.6 55 0z"/>
    </symbol>
</svg>
