<svg width="61" height="61" viewBox="0 0 61 61" fill="none" xmlns="http://www.w3.org/2000/svg">
<!-- <circle cx="30.6992" cy="30.5" r="30" fill="#ffb4a8"/> -->
<mask id="mask0_719_10621" style="mask-type:alpha" maskUnits="userSpaceOnUse" x="10" y="10" width="41" height="41">
<rect x="10.6152" y="10.5" width="40" height="40" fill="#D9D9D9"/>
</mask>
<g mask="url(#mask0_719_10621)">
<path d="M36.3646 35.5833L38.1979 33.8333L34.6979 30.3333C35.0035 29.8611 35.2326 29.3611 35.3854 28.8333C35.5382 28.3056 35.6146 27.75 35.6146 27.1667C35.6146 25.5278 35.0382 24.1458 33.8854 23.0208C32.7326 21.8958 31.3646 21.3333 29.7812 21.3333C28.1979 21.3333 26.8299 21.8958 25.6771 23.0208C24.5243 24.1458 23.9479 25.5278 23.9479 27.1667C23.9479 28.8056 24.5243 30.1875 25.6771 31.3125C26.8299 32.4375 28.1979 33 29.7812 33C30.3646 33 30.9132 32.9236 31.4271 32.7708C31.941 32.6181 32.4479 32.3889 32.9479 32.0833L36.3646 35.5833ZM29.7812 30.5C28.8646 30.5 28.0799 30.1736 27.4271 29.5208C26.7743 28.8681 26.4479 28.0833 26.4479 27.1667C26.4479 26.25 26.7743 25.4653 27.4271 24.8125C28.0799 24.1597 28.8646 23.8333 29.7812 23.8333C30.6701 23.8333 31.4479 24.1597 32.1146 24.8125C32.7812 25.4653 33.1146 26.25 33.1146 27.1667C33.1146 28.0833 32.7882 28.8681 32.1354 29.5208C31.4826 30.1736 30.6979 30.5 29.7812 30.5ZM17.2812 40.5C16.3646 40.5 15.5799 40.1736 14.9271 39.5208C14.2743 38.8681 13.9479 38.0833 13.9479 37.1667V18.8333C13.9479 17.9167 14.2743 17.1319 14.9271 16.4792C15.5799 15.8264 16.3646 15.5 17.2812 15.5H43.9479C44.8646 15.5 45.6493 15.8264 46.3021 16.4792C46.9549 17.1319 47.2812 17.9167 47.2812 18.8333V37.1667C47.2812 38.0833 46.9549 38.8681 46.3021 39.5208C45.6493 40.1736 44.8646 40.5 43.9479 40.5H17.2812ZM17.2812 37.1667H43.9479V18.8333H17.2812V37.1667ZM12.2812 45.5V42.1667H48.9479V45.5H12.2812Z" fill="#b02e21"/>
</g>
</svg>
