<svg width="61" height="61" viewBox="0 0 61 61" fill="none" xmlns="http://www.w3.org/2000/svg">
<circle cx="30.0996" cy="30.5" r="30" fill="#ffb4a8"/>
<mask id="mask0_719_10596" style="mask-type:alpha" maskUnits="userSpaceOnUse" x="10" y="10" width="40" height="41">
<rect x="10" y="10.5" width="40" height="40" fill="#D9D9D9"/>
</mask>
<g mask="url(#mask0_719_10596)">
<path d="M35.4987 38.3333L37.832 35.9999L31.6654 29.8333V22.1666H28.332V31.1666L35.4987 38.3333ZM29.9987 47.1666C27.6931 47.1666 25.5265 46.7291 23.4987 45.8541C21.4709 44.9791 19.707 43.7916 18.207 42.2916C16.707 40.7916 15.5195 39.0277 14.6445 36.9999C13.7695 34.9721 13.332 32.8055 13.332 30.4999C13.332 28.1944 13.7695 26.0277 14.6445 23.9999C15.5195 21.9721 16.707 20.2083 18.207 18.7083C19.707 17.2083 21.4709 16.0208 23.4987 15.1458C25.5265 14.2708 27.6931 13.8333 29.9987 13.8333C32.3043 13.8333 34.4709 14.2708 36.4987 15.1458C38.5265 16.0208 40.2904 17.2083 41.7904 18.7083C43.2904 20.2083 44.4779 21.9721 45.3529 23.9999C46.2279 26.0277 46.6654 28.1944 46.6654 30.4999C46.6654 32.8055 46.2279 34.9721 45.3529 36.9999C44.4779 39.0277 43.2904 40.7916 41.7904 42.2916C40.2904 43.7916 38.5265 44.9791 36.4987 45.8541C34.4709 46.7291 32.3043 47.1666 29.9987 47.1666ZM29.9987 43.8333C33.6931 43.8333 36.839 42.5346 39.4362 39.9374C42.0334 37.3402 43.332 34.1944 43.332 30.4999C43.332 26.8055 42.0334 23.6596 39.4362 21.0624C36.839 18.4652 33.6931 17.1666 29.9987 17.1666C26.3043 17.1666 23.1584 18.4652 20.5612 21.0624C17.964 23.6596 16.6654 26.8055 16.6654 30.4999C16.6654 34.1944 17.964 37.3402 20.5612 39.9374C23.1584 42.5346 26.3043 43.8333 29.9987 43.8333Z" fill="#b02e21"/>
</g>
</svg>
